# xmcd CD database file
#
# Track frame offsets:
#	150
#	13872
#	31893
#	48559
#	60749
#	73041
#	87721
#	104548
#	122453
#	144293
#	163564
#	182597
#	206376
#	234557
#	248830
#	262697
#	278943
#	289992
#	309832
#	330085
#
# Disc length: 4599 seconds
#
# Revision: 0
# Processed by: cddbd v1.5.2PL0 Copyright (c) Steve Scherf et al.
# Submitted via: CDex 1.89
#
DISCID=1511f514
DTITLE=Chet Baker - My Funny Velentine The Essential Collection CD3
DYEAR=2008
DGENRE=Jazz
TTITLE0=Someone To Watch Over Me
TTITLE1=I Wish I Knew
TTITLE2=Grey December
TTITLE3=Daybreak
TTITLE4=Just Friends
TTITLE5=I Remember You
TTITLE6=Let`s Get Lost
TTITLE7=Long Ago And Far Away
TTITLE8=You Don`t Know What Love Is
TTITLE9=Sad Walk
TTITLE10=Just Duo
TTITLE11=The Girl From Greenland
TTITLE12=Down
TTITLE13=I Can`t Get Started
TTITLE14=That Old Feeleng
TTITLE15=It`s Always You
TTITLE16=Like Someone In Love
TTITLE17=My Ideal
TTITLE18=I've Never Been In Love Before
TTITLE19=My Buddy
EXTD=YEAR: 2008
EXTT0=
EXTT1=
EXTT2=
EXTT3=
EXTT4=
EXTT5=
EXTT6=
EXTT7=
EXTT8=
EXTT9=
EXTT10=
EXTT11=
EXTT12=
EXTT13=
EXTT14=
EXTT15=
EXTT16=
EXTT17=
EXTT18=
EXTT19=
PLAYORDER=
